<svg width="21" height="21" viewBox="0 0 21 21" fill="none" xmlns="http://www.w3.org/2000/svg">
<path d="M9.89669 7.87998H13.23C13.451 7.87998 13.663 7.79218 13.8192 7.63591C13.9756 7.47963 14.0634 7.26766 14.0634 7.04665C14.0634 6.82564 13.9756 6.61367 13.8192 6.4574C13.663 6.30112 13.451 6.21332 13.23 6.21332H11.5634V5.37998C11.5634 5.15897 11.4756 4.94701 11.3193 4.79073C11.163 4.63445 10.951 4.54665 10.73 4.54665C10.509 4.54665 10.2971 4.63445 10.1408 4.79073C9.98449 4.94701 9.89669 5.15897 9.89669 5.37998V6.21332C9.23365 6.21332 8.59777 6.47671 8.12892 6.94555C7.66009 7.4144 7.39669 8.05027 7.39669 8.71332C7.39669 9.37636 7.66009 10.0122 8.12892 10.4811C8.59777 10.9499 9.23365 11.2133 9.89669 11.2133H11.5634C11.7844 11.2133 11.9964 11.3011 12.1526 11.4574C12.3089 11.6137 12.3967 11.8257 12.3967 12.0467C12.3967 12.2677 12.3089 12.4797 12.1526 12.6359C11.9964 12.7922 11.7844 12.88 11.5634 12.88H8.23002C8.00901 12.88 7.79705 12.9678 7.64077 13.1241C7.48449 13.2803 7.39669 13.4923 7.39669 13.7133C7.39669 13.9343 7.48449 14.1463 7.64077 14.3025C7.79705 14.4589 8.00901 14.5467 8.23002 14.5467H9.89669V15.38C9.89669 15.601 9.98449 15.813 10.1408 15.9692C10.2971 16.1255 10.509 16.2133 10.73 16.2133C10.951 16.2133 11.163 16.1255 11.3193 15.9692C11.4756 15.813 11.5634 15.601 11.5634 15.38V14.5467C12.2264 14.5467 12.8622 14.2832 13.3311 13.8144C13.8 13.3455 14.0634 12.7097 14.0634 12.0467C14.0634 11.3836 13.8 10.7477 13.3311 10.2789C12.8622 9.81004 12.2264 9.54665 11.5634 9.54665H9.89669C9.67568 9.54665 9.46372 9.45885 9.30743 9.30257C9.15115 9.1463 9.06335 8.93433 9.06335 8.71332C9.06335 8.49231 9.15115 8.28034 9.30743 8.12406C9.46372 7.96778 9.67568 7.87998 9.89669 7.87998ZM10.73 1.21332C8.91703 1.21332 7.14474 1.75093 5.6373 2.75818C4.12984 3.76543 2.95493 5.19706 2.26113 6.87205C1.56733 8.54704 1.3858 10.3902 1.73949 12.1683C2.09319 13.9464 2.96623 15.5798 4.24821 16.8618C5.5302 18.1438 7.16354 19.0169 8.9417 19.3705C10.7199 19.7242 12.563 19.5427 14.2379 18.8489C15.9129 18.1551 17.3446 16.9802 18.3518 15.4728C19.359 13.9653 19.8967 12.193 19.8967 10.38C19.8967 7.94883 18.9309 5.61725 17.2118 3.89817C15.4928 2.17908 13.1611 1.21332 10.73 1.21332ZM10.73 17.88C9.24667 17.88 7.79662 17.4401 6.56324 16.616C5.32988 15.7919 4.36859 14.6205 3.80093 13.2501C3.23328 11.8797 3.08474 10.3717 3.37413 8.91681C3.66352 7.46195 4.37783 6.12557 5.42672 5.07668C6.47562 4.02778 7.81199 3.31348 9.26684 3.0241C10.7217 2.73471 12.2297 2.88323 13.6001 3.45088C14.9706 4.01854 16.1419 4.97984 16.966 6.21321C17.7901 7.44657 18.23 8.89663 18.23 10.38C18.23 12.3691 17.4398 14.2768 16.0334 15.6833C14.6268 17.0898 12.7191 17.88 10.73 17.88Z" fill="#1CA8CB"/>
</svg>
