<svg width="16" height="17" viewBox="0 0 16 17" fill="none" xmlns="http://www.w3.org/2000/svg">
<g clip-path="url(#clip0_4_222)">
<path d="M11 8.66992C10.9792 9.52409 10.6875 10.2324 10.125 10.7949C9.5625 11.3574 8.85417 11.6491 8 11.6699C7.14583 11.6491 6.4375 11.3574 5.875 10.7949C5.3125 10.2324 5.02083 9.52409 5 8.66992C5.02083 7.81575 5.3125 7.10742 5.875 6.54492C6.4375 5.98242 7.14583 5.69075 8 5.66992C8.85417 5.69075 9.5625 5.98242 10.125 6.54492C10.6875 7.10742 10.9792 7.81575 11 8.66992ZM8 6.66992C7.4375 6.69075 6.96875 6.88867 6.59375 7.26367C6.21875 7.63867 6.02083 8.10742 6 8.66992C6.02083 9.23242 6.21875 9.70117 6.59375 10.0762C6.96875 10.4512 7.4375 10.6491 8 10.6699C8.5625 10.6491 9.03125 10.4512 9.40625 10.0762C9.78125 9.70117 9.97917 9.23242 10 8.66992C9.97917 8.10742 9.78125 7.63867 9.40625 7.26367C9.03125 6.88867 8.5625 6.69075 8 6.66992ZM8 0.669922C8.3125 0.690755 8.47917 0.857422 8.5 1.16992V2.70117C9.97917 2.847 11.2292 3.41992 12.25 4.41992C13.25 5.44075 13.8229 6.69075 13.9688 8.16992H15.5C15.8125 8.19075 15.9792 8.35742 16 8.66992C15.9792 8.98242 15.8125 9.14909 15.5 9.16992H13.9688C13.8229 10.6491 13.25 11.8991 12.25 12.9199C11.2292 13.9199 9.97917 14.4928 8.5 14.6387V16.1699C8.47917 16.4824 8.3125 16.6491 8 16.6699C7.6875 16.6491 7.52083 16.4824 7.5 16.1699V14.6387C6.02083 14.4928 4.77083 13.9199 3.75 12.9199C2.75 11.8991 2.17708 10.6491 2.03125 9.16992H0.5C0.1875 9.14909 0.0208333 8.98242 0 8.66992C0.0208333 8.35742 0.1875 8.19075 0.5 8.16992H2.03125C2.17708 6.69075 2.75 5.44075 3.75 4.41992C4.77083 3.41992 6.02083 2.847 7.5 2.70117V1.16992C7.52083 0.857422 7.6875 0.690755 8 0.669922ZM3 8.66992C3.04167 10.0866 3.53125 11.2637 4.46875 12.2012C5.40625 13.1387 6.58333 13.6283 8 13.6699C9.41667 13.6283 10.5938 13.1387 11.5312 12.2012C12.4688 11.2637 12.9583 10.0866 13 8.66992C12.9583 7.25325 12.4688 6.07617 11.5312 5.13867C10.5938 4.20117 9.41667 3.71159 8 3.66992C6.58333 3.71159 5.40625 4.20117 4.46875 5.13867C3.53125 6.07617 3.04167 7.25325 3 8.66992Z" fill="#6E7070"/>
</g>
<defs>
<clipPath id="clip0_4_222">
<rect width="16" height="16" fill="white" transform="matrix(1 0 0 -1 0 16.6699)"/>
</clipPath>
</defs>
</svg>
