<svg width="15" height="14" viewBox="0 0 15 14" fill="none" xmlns="http://www.w3.org/2000/svg">
<path d="M3.30625 13.9805H0.4V4.63672H3.30625V13.9805ZM1.8375 3.38672C0.93125 3.38672 0.18125 2.60547 0.18125 1.66797C0.18125 0.761719 0.93125 0.0117188 1.8375 0.0117188C2.775 0.0117188 3.525 0.761719 3.525 1.66797C3.525 2.60547 2.775 3.38672 1.8375 3.38672ZM14.15 13.9805H11.275V9.44922C11.275 8.35547 11.2438 6.98047 9.74375 6.98047C8.24375 6.98047 8.025 8.13672 8.025 9.35547V13.9805H5.11875V4.63672H7.9V5.91797H7.93125C8.3375 5.19922 9.275 4.41797 10.6813 4.41797C13.6188 4.41797 14.1813 6.35547 14.1813 8.85547V13.9805H14.15Z" fill="#1CA8CB"/>
</svg>
