<svg width="13" height="13" viewBox="0 0 13 13" fill="none" xmlns="http://www.w3.org/2000/svg">
<path d="M6.67532 3.02588C8.39797 3.02588 9.81985 4.44775 9.81985 6.17041C9.81985 7.92041 8.39797 9.31494 6.67532 9.31494C4.92532 9.31494 3.53079 7.92041 3.53079 6.17041C3.53079 4.44775 4.92532 3.02588 6.67532 3.02588ZM6.67532 8.22119C7.79641 8.22119 8.69875 7.31885 8.69875 6.17041C8.69875 5.04932 7.79641 4.14697 6.67532 4.14697C5.52688 4.14697 4.62454 5.04932 4.62454 6.17041C4.62454 7.31885 5.55422 8.22119 6.67532 8.22119ZM10.6675 2.9165C10.6675 3.32666 10.3394 3.65479 9.92922 3.65479C9.51907 3.65479 9.19094 3.32666 9.19094 2.9165C9.19094 2.50635 9.51907 2.17822 9.92922 2.17822C10.3394 2.17822 10.6675 2.50635 10.6675 2.9165ZM12.7456 3.65479C12.8003 4.6665 12.8003 7.70166 12.7456 8.71338C12.6909 9.69775 12.4722 10.5454 11.7613 11.2837C11.0503 11.9946 10.1753 12.2134 9.19094 12.2681C8.17922 12.3228 5.14407 12.3228 4.13235 12.2681C3.14797 12.2134 2.30032 11.9946 1.56204 11.2837C0.851099 10.5454 0.632349 9.69775 0.577661 8.71338C0.522974 7.70166 0.522974 4.6665 0.577661 3.65479C0.632349 2.67041 0.851099 1.79541 1.56204 1.08447C2.30032 0.373535 3.14797 0.154785 4.13235 0.100098C5.14407 0.0454102 8.17922 0.0454102 9.19094 0.100098C10.1753 0.154785 11.0503 0.373535 11.7613 1.08447C12.4722 1.79541 12.6909 2.67041 12.7456 3.65479ZM11.4331 9.77979C11.7613 8.98682 11.6792 7.07275 11.6792 6.17041C11.6792 5.29541 11.7613 3.38135 11.4331 2.56104C11.2144 2.0415 10.8042 1.604 10.2847 1.4126C9.46438 1.08447 7.55032 1.1665 6.67532 1.1665C5.77297 1.1665 3.85891 1.08447 3.06594 1.4126C2.51907 1.63135 2.10891 2.0415 1.89016 2.56104C1.56204 3.38135 1.64407 5.29541 1.64407 6.17041C1.64407 7.07275 1.56204 8.98682 1.89016 9.77979C2.10891 10.3267 2.51907 10.7368 3.06594 10.9556C3.85891 11.2837 5.77297 11.2017 6.67532 11.2017C7.55032 11.2017 9.46438 11.2837 10.2847 10.9556C10.8042 10.7368 11.2417 10.3267 11.4331 9.77979Z" fill="#1CA8CB"/>
</svg>
