<svg width="20" height="21" viewBox="0 0 20 21" fill="none" xmlns="http://www.w3.org/2000/svg">
<path d="M10 0.380005C7.87827 0.380005 5.84344 1.22286 4.34315 2.72315C2.84285 4.22344 2 6.25827 2 8.38C2 13.78 9.05 19.88 9.35 20.14C9.53113 20.2949 9.76165 20.38 10 20.38C10.2384 20.38 10.4689 20.2949 10.65 20.14C11 19.88 18 13.78 18 8.38C18 6.25827 17.1572 4.22344 15.6568 2.72315C14.1566 1.22286 12.1217 0.380005 10 0.380005ZM10 18.03C7.87 16.03 4 11.72 4 8.38C4 6.78871 4.63215 5.26258 5.75736 4.13737C6.88257 3.01215 8.40871 2.38 10 2.38C11.5913 2.38 13.1174 3.01215 14.2426 4.13737C15.3679 5.26258 16 6.78871 16 8.38C16 11.72 12.13 16.04 10 18.03ZM10 4.38C9.20888 4.38 8.43552 4.6146 7.77772 5.05412C7.11992 5.49366 6.60723 6.11837 6.30448 6.84927C6.00173 7.58018 5.92252 8.38445 6.07685 9.16037C6.2312 9.93629 6.61216 10.649 7.17157 11.2084C7.73099 11.7678 8.44372 12.1488 9.21964 12.3032C9.99556 12.4575 10.7998 12.3783 11.5307 12.0755C12.2616 11.7728 12.8864 11.2601 13.3259 10.6023C13.7654 9.94448 14 9.17113 14 8.38C14 7.31914 13.5786 6.30172 12.8284 5.55158C12.0783 4.80143 11.0609 4.38 10 4.38ZM10 10.38C9.60444 10.38 9.21776 10.2627 8.88887 10.0429C8.55996 9.82318 8.30361 9.51082 8.15224 9.14538C8.00087 8.77993 7.96125 8.37779 8.03843 7.98982C8.1156 7.60186 8.30608 7.2455 8.58579 6.96579C8.86549 6.68609 9.22185 6.4956 9.60983 6.41843C9.99779 6.34126 10.3999 6.38087 10.7654 6.53225C11.1308 6.68362 11.4432 6.93996 11.6629 7.26887C11.8827 7.59776 12 7.98445 12 8.38C12 8.91043 11.7893 9.41915 11.4142 9.79422C11.0391 10.1693 10.5304 10.38 10 10.38Z" fill="#1CA8CB"/>
</svg>
