<svg width="19" height="19" viewBox="0 0 19 19" fill="none" xmlns="http://www.w3.org/2000/svg">
<g clip-path="url(#clip0_4_835)">
<g clip-path="url(#clip1_4_835)">
<g clip-path="url(#clip2_4_835)">
<path d="M5.44 7.31543L7.64652 8.61998C8.9329 9.38055 9.4471 9.38055 10.7335 8.61998L12.94 7.31543" stroke="#1CA8CB" stroke-width="1.5" stroke-linecap="round" stroke-linejoin="round"/>
<path d="M1.70183 11.0471C1.75086 13.3463 1.77538 14.4958 2.62373 15.3475C3.47207 16.199 4.65275 16.2286 7.01412 16.288C8.46948 16.3246 9.91054 16.3246 11.3659 16.288C13.7273 16.2286 14.9079 16.199 15.7563 15.3475C16.6047 14.4958 16.6292 13.3463 16.6781 11.0471C16.694 10.3079 16.694 9.57301 16.6781 8.83373C16.6292 6.53458 16.6047 5.385 15.7563 4.53343C14.9079 3.68185 13.7273 3.65219 11.3659 3.59286C9.91054 3.55629 8.46947 3.55629 7.01411 3.59285C4.65275 3.65218 3.47207 3.68184 2.62372 4.53342C1.77538 5.38499 1.75085 6.53457 1.70182 8.83373C1.68605 9.57301 1.68606 10.3079 1.70183 11.0471Z" stroke="#1CA8CB" stroke-width="1.5" stroke-linejoin="round"/>
</g>
</g>
</g>
<defs>
<clipPath id="clip0_4_835">
<rect width="18" height="18" fill="white" transform="translate(0.190002 0.94043)"/>
</clipPath>
<clipPath id="clip1_4_835">
<rect width="18" height="18" fill="white" transform="translate(0.190002 0.94043)"/>
</clipPath>
<clipPath id="clip2_4_835">
<rect width="18" height="18" fill="white" transform="translate(0.190002 0.94043)"/>
</clipPath>
</defs>
</svg>
