<svg width="21" height="21" viewBox="0 0 21 21" fill="none" xmlns="http://www.w3.org/2000/svg">
<path d="M16.4992 8.44735C15.9831 8.44735 15.4892 8.54388 15.0343 8.71946C14.6779 7.92743 14.37 7.08982 14.2162 6.31056C13.9692 5.05907 12.8633 4.15076 11.5866 4.15076C11.263 4.15076 11.0006 4.4131 11.0006 4.73669C11.0006 5.06028 11.263 5.32263 11.5866 5.32263C11.726 5.32263 11.8617 5.34208 11.9911 5.37821C12.3841 5.48806 12.7177 5.75392 12.9122 6.11095C12.8965 6.13095 12.8815 6.1517 12.8682 6.17415L12.6861 6.4806L11.7652 8.03099H6.84469L6.565 7.32704H6.68109C7.00469 7.32704 7.26703 7.0647 7.26703 6.7411C7.26703 6.41751 7.00469 6.15517 6.68109 6.15517H4.66082C4.33723 6.15517 4.07488 6.41751 4.07488 6.7411C4.07488 7.0647 4.33723 7.32704 4.66082 7.32704H5.30402L5.81535 8.61392C5.4491 8.50571 5.06168 8.44731 4.66082 8.44731C2.41062 8.44735 0.579956 10.278 0.579956 12.5282C0.579956 14.7783 2.41062 16.609 4.66078 16.609C6.71199 16.609 8.41433 15.0877 8.69937 13.1141H9.77543C9.98215 13.1141 10.1736 13.0052 10.2792 12.8274L13.3584 7.6436C13.539 8.20259 13.7651 8.76267 14.0088 9.29774C13.0421 10.0447 12.4184 11.2149 12.4184 12.5282C12.4184 14.7784 14.249 16.609 16.4992 16.609C18.7493 16.609 20.58 14.7784 20.58 12.5282C20.58 10.2781 18.7493 8.44735 16.4992 8.44735ZM4.66078 13.1141H7.51043C7.23855 14.4382 6.06414 15.4371 4.66078 15.4371C3.0568 15.4371 1.75184 14.1322 1.75184 12.5282C1.75184 10.9242 3.0568 9.61924 4.66078 9.61924C6.06414 9.61924 7.23855 10.6181 7.51043 11.9422H4.66078C4.33719 11.9422 4.07484 12.2046 4.07484 12.5282C4.07484 12.8518 4.33719 13.1141 4.66078 13.1141ZM9.44195 11.9422H8.69937C8.5634 11.0009 8.105 10.1625 7.43996 9.54298C7.43387 9.51946 7.4268 9.49604 7.41758 9.47287L7.31031 9.2029H11.0691L9.44195 11.9422ZM16.4992 15.4371C14.8952 15.4371 13.5902 14.1321 13.5902 12.5281C13.5902 11.6784 13.9566 10.9127 14.5395 10.3804C15.2601 11.7576 15.964 12.7842 16.017 12.861C16.1307 13.0257 16.3136 13.1141 16.4997 13.1141C16.6145 13.1141 16.7304 13.0804 16.832 13.0103C17.0984 12.8265 17.1652 12.4616 16.9814 12.1952C16.9688 12.177 16.2597 11.1429 15.5497 9.77911C15.8475 9.67595 16.1668 9.61915 16.4992 9.61915C18.1032 9.61915 19.4081 10.9241 19.4081 12.5281C19.4081 14.1321 18.1032 15.4371 16.4992 15.4371Z" fill="#1CA8CB"/>
</svg>
