<svg width="19" height="19" viewBox="0 0 19 19" fill="none" xmlns="http://www.w3.org/2000/svg">
<g clip-path="url(#clip0_4_821)">
<g clip-path="url(#clip1_4_821)">
<g clip-path="url(#clip2_4_821)">
<mask id="mask0_4_821" style="mask-type:luminance" maskUnits="userSpaceOnUse" x="0" y="0" width="19" height="19">
<path d="M18.19 0.730469H0.190002V18.7305H18.19V0.730469Z" fill="white"/>
</mask>
<g mask="url(#mask0_4_821)">
<path d="M3.02321 9.68727C2.3122 8.44745 1.96889 7.43508 1.76188 6.40888C1.45571 4.89116 2.15636 3.40858 3.31703 2.46257C3.80759 2.06276 4.36992 2.19936 4.66 2.71977L5.31488 3.89465C5.83397 4.8259 6.0935 5.29151 6.04202 5.78516C5.99055 6.27881 5.64053 6.68087 4.94048 7.48498L3.02321 9.68727ZM3.02321 9.68727C4.46238 12.1967 6.72088 14.4565 9.2332 15.8973M9.2332 15.8973C10.473 16.6083 11.4854 16.9516 12.5116 17.1586C14.0293 17.4648 15.5119 16.7642 16.4579 15.6035C16.8577 15.113 16.7211 14.5506 16.2007 14.2605L15.0258 13.6056C14.0945 13.0865 13.6289 12.827 13.1353 12.8785C12.6416 12.9299 12.2396 13.28 11.4355 13.98L9.2332 15.8973Z" stroke="#1CA8CB" stroke-width="1.5" stroke-linejoin="round"/>
<path d="M10.69 5.85436C11.7574 6.30765 12.6128 7.16305 13.0661 8.23047M11.1805 2.23047C13.8334 2.99604 15.9243 5.08686 16.69 7.73969" stroke="#1CA8CB" stroke-width="1.5" stroke-linecap="round"/>
</g>
</g>
</g>
</g>
<defs>
<clipPath id="clip0_4_821">
<rect width="18" height="18" fill="white" transform="translate(0.190002 0.730469)"/>
</clipPath>
<clipPath id="clip1_4_821">
<rect width="18" height="18" fill="white" transform="translate(0.190002 0.730469)"/>
</clipPath>
<clipPath id="clip2_4_821">
<rect width="18" height="18" fill="white" transform="translate(0.190002 0.730469)"/>
</clipPath>
</defs>
</svg>
