<svg width="15" height="15" viewBox="0 0 15 15" fill="none" xmlns="http://www.w3.org/2000/svg">
<path d="M12.0563 3.04297C13.3688 4.35547 14.1813 6.07422 14.1813 7.94922C14.1813 11.7617 10.9938 14.8867 7.15 14.8867C5.99375 14.8867 4.86875 14.5742 3.8375 14.043L0.18125 14.9805L1.15 11.3867C0.55625 10.3555 0.2125 9.16797 0.2125 7.91797C0.2125 4.10547 3.3375 0.980469 7.15 0.980469C9.025 0.980469 10.775 1.73047 12.0563 3.04297ZM7.15 13.6992C10.3375 13.6992 12.9938 11.1055 12.9938 7.94922C12.9938 6.38672 12.3375 4.94922 11.2438 3.85547C10.15 2.76172 8.7125 2.16797 7.18125 2.16797C3.99375 2.16797 1.4 4.76172 1.4 7.91797C1.4 9.01172 1.7125 10.0742 2.275 11.0117L2.43125 11.2305L1.8375 13.3555L4.025 12.7617L4.2125 12.8867C5.11875 13.418 6.11875 13.6992 7.15 13.6992ZM10.3375 9.38672C10.4938 9.48047 10.6188 9.51172 10.65 9.60547C10.7125 9.66797 10.7125 10.0117 10.5563 10.418C10.4 10.8242 9.7125 11.1992 9.4 11.2305C8.8375 11.3242 8.4 11.293 7.30625 10.793C5.55625 10.043 4.43125 8.29297 4.3375 8.19922C4.24375 8.07422 3.65 7.26172 3.65 6.38672C3.65 5.54297 4.0875 5.13672 4.24375 4.94922C4.4 4.76172 4.5875 4.73047 4.7125 4.73047C4.80625 4.73047 4.93125 4.73047 5.025 4.73047C5.15 4.73047 5.275 4.69922 5.43125 5.04297C5.55625 5.38672 5.93125 6.23047 5.9625 6.32422C5.99375 6.41797 6.025 6.51172 5.9625 6.63672C5.65 7.29297 5.275 7.26172 5.4625 7.57422C6.15 8.73047 6.80625 9.13672 7.8375 9.63672C7.99375 9.73047 8.0875 9.69922 8.2125 9.60547C8.30625 9.48047 8.65 9.07422 8.74375 8.91797C8.86875 8.73047 8.99375 8.76172 9.15 8.82422C9.30625 8.88672 10.15 9.29297 10.3375 9.38672Z" fill="#1CA8CB"/>
</svg>
