<svg width="16" height="15" viewBox="0 0 16 15" fill="none" xmlns="http://www.w3.org/2000/svg">
<g clip-path="url(#clip0_4_610)">
<path d="M8.91799 0.602149L10.6953 4.21152L14.7149 4.78574C15.0795 4.87689 15.3073 5.07741 15.3985 5.38731C15.5078 5.71543 15.4349 6.01621 15.1797 6.28965L12.2813 9.07871L12.9649 13.0709C13.0196 13.4355 12.9102 13.718 12.6367 13.9186C12.3633 14.1191 12.0534 14.1373 11.7071 13.9732L8.12502 12.1412L4.54299 14.0006C4.19664 14.1646 3.88674 14.1464 3.61331 13.9459C3.33987 13.7454 3.23049 13.4628 3.28518 13.0982L3.96877 9.10605L1.07034 6.28965C0.815129 6.01621 0.742212 5.71543 0.851587 5.38731C0.942733 5.07741 1.1706 4.886 1.53518 4.81309L5.55471 4.21152L7.33206 0.602149C7.53258 0.274024 7.7969 0.109962 8.12502 0.109962C8.47138 0.109962 8.7357 0.274024 8.91799 0.602149Z" fill="#FFA944"/>
</g>
<defs>
<clipPath id="clip0_4_610">
<rect width="15.75" height="14" fill="white" transform="matrix(1 0 0 -1 0.25 14.1099)"/>
</clipPath>
</defs>
</svg>
