<svg width="33" height="33" viewBox="0 0 33 33" fill="none" xmlns="http://www.w3.org/2000/svg">
<g clip-path="url(#clip0_4_599)">
<g clip-path="url(#clip1_4_599)">
<path d="M14.0033 11.6062C14.0033 14.1204 14.0033 15.3774 13.2223 16.1585C12.4412 16.9396 11.1841 16.9396 8.67 16.9396C6.15584 16.9396 4.89876 16.9396 4.11772 16.1585C3.33667 15.3774 3.33667 14.1204 3.33667 11.6062C3.33667 9.09212 3.33667 7.83504 4.11772 7.054C4.89876 6.27295 6.15584 6.27295 8.67 6.27295C11.1841 6.27295 12.4412 6.27295 13.2223 7.054C14.0033 7.83504 14.0033 9.09212 14.0033 11.6062Z" stroke="#1CA8CB" stroke-width="1.5"/>
<path d="M14.0033 10.2729V16.249C14.0033 21.5458 10.6491 26.0378 6.00336 27.6062" stroke="#1CA8CB" stroke-width="1.5" stroke-linecap="round"/>
<path d="M30.0033 11.6062C30.0033 14.1204 30.0033 15.3774 29.2223 16.1585C28.4412 16.9396 27.1841 16.9396 24.67 16.9396C22.1559 16.9396 20.8988 16.9396 20.1177 16.1585C19.3367 15.3774 19.3367 14.1204 19.3367 11.6062C19.3367 9.09212 19.3367 7.83504 20.1177 7.054C20.8988 6.27295 22.1559 6.27295 24.67 6.27295C27.1841 6.27295 28.4412 6.27295 29.2223 7.054C30.0033 7.83504 30.0033 9.09212 30.0033 11.6062Z" stroke="#1CA8CB" stroke-width="1.5"/>
<path d="M30.0033 10.2729V16.249C30.0033 21.5458 26.6491 26.0378 22.0033 27.6062" stroke="#1CA8CB" stroke-width="1.5" stroke-linecap="round"/>
</g>
</g>
<defs>
<clipPath id="clip0_4_599">
<rect width="32" height="32" fill="white" transform="translate(0.670013 0.939941)"/>
</clipPath>
<clipPath id="clip1_4_599">
<rect width="32" height="32" fill="white" transform="translate(0.670013 0.939941)"/>
</clipPath>
</defs>
</svg>
