<svg width="33" height="33" viewBox="0 0 33 33" fill="none" xmlns="http://www.w3.org/2000/svg">
<g clip-path="url(#clip0_4_622)">
<g clip-path="url(#clip1_4_622)">
<path d="M13.4133 11.6062C13.4133 14.1204 13.4133 15.3774 12.6323 16.1585C11.8512 16.9396 10.5941 16.9396 8.07997 16.9396C5.56581 16.9396 4.30873 16.9396 3.52769 16.1585C2.74664 15.3774 2.74664 14.1204 2.74664 11.6062C2.74664 9.09212 2.74664 7.83504 3.52769 7.054C4.30873 6.27295 5.56581 6.27295 8.07997 6.27295C10.5941 6.27295 11.8512 6.27295 12.6323 7.054C13.4133 7.83504 13.4133 9.09212 13.4133 11.6062Z" stroke="#E35734" stroke-width="1.5"/>
<path d="M13.4132 10.2729V16.249C13.4132 21.5458 10.059 26.0378 5.41327 27.6062" stroke="#E35734" stroke-width="1.5" stroke-linecap="round"/>
<path d="M29.4132 11.6062C29.4132 14.1204 29.4132 15.3774 28.6322 16.1585C27.8511 16.9396 26.594 16.9396 24.0799 16.9396C21.5658 16.9396 20.3087 16.9396 19.5276 16.1585C18.7466 15.3774 18.7466 14.1204 18.7466 11.6062C18.7466 9.09212 18.7466 7.83504 19.5276 7.054C20.3087 6.27295 21.5658 6.27295 24.0799 6.27295C26.594 6.27295 27.8511 6.27295 28.6322 7.054C29.4132 7.83504 29.4132 9.09212 29.4132 11.6062Z" stroke="#E35734" stroke-width="1.5"/>
<path d="M29.4133 10.2729V16.249C29.4133 21.5458 26.0591 26.0378 21.4133 27.6062" stroke="#E35734" stroke-width="1.5" stroke-linecap="round"/>
</g>
</g>
<defs>
<clipPath id="clip0_4_622">
<rect width="32" height="32" fill="white" transform="translate(0.0799561 0.939941)"/>
</clipPath>
<clipPath id="clip1_4_622">
<rect width="32" height="32" fill="white" transform="translate(0.0799561 0.939941)"/>
</clipPath>
</defs>
</svg>
