<svg width="16" height="17" viewBox="0 0 16 17" fill="none" xmlns="http://www.w3.org/2000/svg">
<g clip-path="url(#clip0_4_228)">
<path d="M7.5 4.16992C7.52083 3.85742 7.6875 3.69075 8 3.66992C8.3125 3.69075 8.47917 3.85742 8.5 4.16992V8.38867L11.2812 10.2637C11.5104 10.4512 11.5521 10.6803 11.4062 10.9512C11.2188 11.1803 10.9896 11.222 10.7188 11.0762L7.71875 9.07617C7.57292 8.97201 7.48958 8.83659 7.46875 8.66992L7.5 4.16992ZM8 0.669922C9.5 0.690755 10.8438 1.05534 12.0312 1.76367C13.2396 2.472 14.1979 3.43034 14.9062 4.63867C15.6146 5.82617 15.9792 7.16992 16 8.66992C15.9792 10.1699 15.6146 11.5137 14.9062 12.7012C14.1979 13.9095 13.2396 14.8678 12.0312 15.5762C10.8438 16.2845 9.5 16.6491 8 16.6699C6.5 16.6491 5.15625 16.2845 3.96875 15.5762C2.76042 14.8678 1.80208 13.9095 1.09375 12.7012C0.385417 11.5137 0.0208333 10.1699 0 8.66992C0.0208333 7.16992 0.385417 5.82617 1.09375 4.63867C1.80208 3.43034 2.76042 2.472 3.96875 1.76367C5.15625 1.05534 6.5 0.690755 8 0.669922ZM1 8.66992C1.02083 9.98242 1.34375 11.1595 1.96875 12.2012C2.57292 13.2637 3.40625 14.097 4.46875 14.7012C5.51042 15.3262 6.6875 15.6491 8 15.6699C9.3125 15.6491 10.4896 15.3262 11.5312 14.7012C12.5938 14.097 13.4271 13.2637 14.0312 12.2012C14.6562 11.1595 14.9792 9.98242 15 8.66992C14.9792 7.35742 14.6562 6.18034 14.0312 5.13867C13.4271 4.07617 12.5938 3.24284 11.5312 2.63867C10.4896 2.01367 9.3125 1.69075 8 1.66992C6.6875 1.69075 5.51042 2.01367 4.46875 2.63867C3.40625 3.24284 2.57292 4.07617 1.96875 5.13867C1.34375 6.18034 1.02083 7.35742 1 8.66992Z" fill="#113D48"/>
</g>
<defs>
<clipPath id="clip0_4_228">
<rect width="16" height="16" fill="white" transform="matrix(1 0 0 -1 0 16.6699)"/>
</clipPath>
</defs>
</svg>
