<svg width="21" height="21" viewBox="0 0 21 21" fill="none" xmlns="http://www.w3.org/2000/svg">
<path d="M10.0767 0.546692C8.1483 0.546692 6.26323 1.11852 4.65986 2.18987C3.05647 3.26121 1.80679 4.78395 1.06884 6.56553C0.330884 8.34711 0.137802 10.3075 0.514008 12.1988C0.890214 14.0902 1.81881 15.8274 3.18237 17.191C4.54594 18.5546 6.28322 19.4831 8.17453 19.8594C10.0658 20.2355 12.0262 20.0424 13.8079 19.3046C15.5895 18.5666 17.1121 17.3168 18.1835 15.7135C19.2548 14.1102 19.8267 12.2251 19.8267 10.2967C19.8267 9.01631 19.5745 7.74845 19.0845 6.56553C18.5945 5.3826 17.8763 4.30777 16.9709 3.4024C16.0656 2.49703 14.9908 1.77885 13.8079 1.28887C12.6249 0.798883 11.357 0.546692 10.0767 0.546692ZM10.0767 18.0967C8.53397 18.0967 7.02591 17.6392 5.74322 16.7822C4.46051 15.9251 3.46077 14.7068 2.87041 13.2816C2.28005 11.8564 2.12558 10.288 2.42654 8.77499C2.7275 7.26193 3.47038 5.87211 4.56123 4.78125C5.65209 3.69041 7.04191 2.94753 8.55495 2.64657C10.068 2.3456 11.6363 2.50007 13.0616 3.09043C14.4868 3.6808 15.7051 4.68055 16.5621 5.96324C17.4192 7.24595 17.8767 8.754 17.8767 10.2967C17.8767 12.3654 17.0549 14.3494 15.5921 15.8122C14.1293 17.275 12.1454 18.0967 10.0767 18.0967ZM13.0992 10.9109L11.0517 9.73119V5.42169C11.0517 5.16311 10.9489 4.91511 10.7661 4.73227C10.5832 4.54941 10.3352 4.44669 10.0767 4.44669C9.81807 4.44669 9.57009 4.54941 9.38723 4.73227C9.20438 4.91511 9.10166 5.16311 9.10166 5.42169V10.2967C9.10166 10.2967 9.10166 10.3747 9.10166 10.4137C9.10743 10.4809 9.1239 10.5467 9.15042 10.6087C9.17049 10.6665 9.19663 10.7221 9.22841 10.7744C9.25509 10.8299 9.28779 10.8822 9.32591 10.9304L9.48191 11.0572L9.56966 11.1449L12.1047 12.6074C12.2533 12.6917 12.4214 12.7354 12.5922 12.7342C12.808 12.7357 13.0183 12.6655 13.19 12.5346C13.3617 12.4038 13.4851 12.2196 13.5409 12.0111C13.5967 11.8025 13.5816 11.5813 13.4981 11.3822C13.4147 11.1831 13.2675 11.0174 13.0797 10.9109H13.0992Z" fill="#1CA8CB"/>
</svg>
