<svg width="15" height="12" viewBox="0 0 15 12" fill="none" xmlns="http://www.w3.org/2000/svg">
<path d="M13.232 3.32666C13.232 3.46338 13.232 3.57275 13.232 3.70947C13.232 7.51025 10.3609 11.8579 5.08359 11.8579C3.44297 11.8579 1.93906 11.3931 0.68125 10.5728C0.9 10.6001 1.11875 10.6274 1.36484 10.6274C2.70469 10.6274 3.93516 10.1626 4.91953 9.39697C3.66172 9.36963 2.59531 8.54932 2.23984 7.40088C2.43125 7.42822 2.59531 7.45557 2.78672 7.45557C3.03281 7.45557 3.30625 7.40088 3.525 7.34619C2.2125 7.07275 1.22813 5.92432 1.22813 4.52979V4.50244C1.61094 4.72119 2.07578 4.83057 2.54063 4.85791C1.74766 4.33838 1.25547 3.46338 1.25547 2.479C1.25547 1.93213 1.39219 1.43994 1.63828 1.02979C3.06016 2.75244 5.19297 3.90088 7.57188 4.0376C7.51719 3.81885 7.48984 3.6001 7.48984 3.38135C7.48984 1.79541 8.775 0.510254 10.3609 0.510254C11.1813 0.510254 11.9195 0.838379 12.4664 1.4126C13.0953 1.27588 13.7242 1.02979 14.2711 0.70166C14.0523 1.38525 13.6148 1.93213 13.0133 2.2876C13.5875 2.23291 14.1617 2.06885 14.6539 1.8501C14.2711 2.42432 13.7789 2.9165 13.232 3.32666Z" fill="#1CA8CB"/>
</svg>
