<svg width="16" height="12" viewBox="0 0 16 12" fill="none" xmlns="http://www.w3.org/2000/svg">
<path d="M14.8339 2.58838C15.162 3.73682 15.162 6.19775 15.162 6.19775C15.162 6.19775 15.162 8.63135 14.8339 9.80713C14.6698 10.4634 14.1503 10.9556 13.5214 11.1196C12.3456 11.4204 7.69719 11.4204 7.69719 11.4204C7.69719 11.4204 3.02141 11.4204 1.84563 11.1196C1.21672 10.9556 0.697192 10.4634 0.53313 9.80713C0.205005 8.63135 0.205005 6.19775 0.205005 6.19775C0.205005 6.19775 0.205005 3.73682 0.53313 2.58838C0.697192 1.93213 1.21672 1.4126 1.84563 1.24854C3.02141 0.92041 7.69719 0.92041 7.69719 0.92041C7.69719 0.92041 12.3456 0.92041 13.5214 1.24854C14.1503 1.4126 14.6698 1.93213 14.8339 2.58838ZM6.16594 8.4126L10.0488 6.19775L6.16594 3.98291V8.4126Z" fill="#1CA8CB"/>
</svg>
